<svg xmlns="http://www.w3.org/2000/svg" xmlns:xlink="http://www.w3.org/1999/xlink" width="236" height="90" viewBox="0 0 236 90">
  <defs>
    <clipPath id="clip-logo">
      <rect width="236" height="90"/>
    </clipPath>
  </defs>
  <g id="logo" clip-path="url(#clip-logo)">
    <g id="red" transform="translate(4 4)">
      <g id="Group_113" data-name="Group 113" transform="translate(0 5.262)">
        <g id="Group_112" data-name="Group 112" transform="translate(0 0)">
          <g id="Group_104" data-name="Group 104">
            <g id="Group_103" data-name="Group 103">
              <path id="Path_396" data-name="Path 396" d="M429.717,877.458v7.023H409.4a26.782,26.782,0,0,1-8.98-1.209,8.567,8.567,0,0,1-4.864-4.4q-1.584-3.195-1.583-9.3,0-5.814,1.5-8.894a8.4,8.4,0,0,1,4.835-4.317,28.041,28.041,0,0,1,9.383-1.237q3.223,0,7.714.23t6.332.518v21.587Zm-27.2-2.965a4.49,4.49,0,0,0,2.562,2.331,14.122,14.122,0,0,0,4.72.633h6.217V862.434q-2.879-.287-6.044-.288a15.076,15.076,0,0,0-4.922.633A4.449,4.449,0,0,0,402.489,865a10.342,10.342,0,0,0-.806,4.577A11.473,11.473,0,0,0,402.517,874.493Zm.489-33.588h5.929v7.2h-5.929Zm8.75,0h5.929v7.2h-5.929Z" transform="translate(-393.969 -840.905)"/>
            </g>
          </g>
          <g id="Group_106" data-name="Group 106" transform="translate(35.609)">
            <g id="Group_105" data-name="Group 105">
              <path id="Path_397" data-name="Path 397" d="M605.719,877.458v7.023H583.205v-7.023h8.2V840.905h7.714v36.553Z" transform="translate(-583.205 -840.905)"/>
            </g>
          </g>
          <g id="Group_108" data-name="Group 108" transform="translate(57.966 14.218)">
            <g id="Group_107" data-name="Group 107">
              <path id="Path_398" data-name="Path 398" d="M743.723,920.925a18.179,18.179,0,0,1,3.022,10.448v14.449H702.017V938.8h7.6V916.464h7.714v9.786a55.622,55.622,0,0,1,4.692-5.238,17.249,17.249,0,0,1,4.922-3.281,15.744,15.744,0,0,1,6.5-1.266Q740.7,916.464,743.723,920.925Zm-20.033,6.39a32.54,32.54,0,0,0-6.361,8.836V938.8h21.7V932.87a11.245,11.245,0,0,0-1.928-6.649,6.273,6.273,0,0,0-5.44-2.734Q727.575,923.487,723.69,927.315Z" transform="translate(-702.017 -916.464)"/>
            </g>
          </g>
          <g id="Group_110" data-name="Group 110" transform="translate(109.716 14.218)">
            <g id="Group_109" data-name="Group 109">
              <path id="Path_399" data-name="Path 399" d="M997.3,916.9a60.231,60.231,0,0,1,6.275,1.008v22.853a100.922,100.922,0,0,1-.825,12.339,15.3,15.3,0,0,1-3.4,7.311q-2.677,3.195-8.03,3.195a72.627,72.627,0,0,1-10.016-1.094v-6.965a77.636,77.636,0,0,0,9.325,1.036,5.524,5.524,0,0,0,2.878-.633,3.747,3.747,0,0,0,1.526-2.187,53.743,53.743,0,0,0,.595-7.935h-6.678q-11.916,0-11.916-13.47,0-6.85,1.526-10.419a7.455,7.455,0,0,1,4.317-4.231,18.32,18.32,0,0,1,7.34-1.237A61.915,61.915,0,0,1,997.3,916.9Zm-11.283,19.917q1.265,1.986,5.066,1.986h4.778V923.385a32.3,32.3,0,0,0-4.2-.288,9.7,9.7,0,0,0-3.857.476,4.629,4.629,0,0,0-2.245,2.59,15.57,15.57,0,0,0-.806,5.728A8.975,8.975,0,0,0,986.015,936.813Z" transform="translate(-977.035 -916.464)"/>
            </g>
          </g>
          <g id="Group_111" data-name="Group 111" transform="translate(0.027 46.483)">
            <path id="Path_400" data-name="Path 400" d="M394.11,1109.8h1.9l1.8,9.03h.389l2.15-8.826h1.986l2.17,8.826h.389l1.8-9.03h1.884l-2.273,10.668H403.2l-1.843-7.679-1.863,7.679h-3.112Z" transform="translate(-394.11 -1105.686)"/>
            <path id="Path_401" data-name="Path 401" d="M527.319,1119.669a3.343,3.343,0,0,1-.758-2.354,2.862,2.862,0,0,1,.778-2.221,4.255,4.255,0,0,1,2.477-.87l2.907-.266v-.8a1.818,1.818,0,0,0-.389-1.3,1.53,1.53,0,0,0-1.146-.4,37.1,37.1,0,0,0-3.972.246l-.061-1.392a17.647,17.647,0,0,1,4.033-.512,3.619,3.619,0,0,1,2.62.809,3.456,3.456,0,0,1,.819,2.549v4.934a.936.936,0,0,0,.276.625,1.435,1.435,0,0,0,.747.3l-.062,1.474a5,5,0,0,1-1.494-.194,3.021,3.021,0,0,1-1.085-.6,8.288,8.288,0,0,1-3.48.8A2.862,2.862,0,0,1,527.319,1119.669Zm4.975-1.167.43-.143v-3.01l-2.661.246a1.825,1.825,0,0,0-1.177.481,1.649,1.649,0,0,0-.379,1.177q0,1.638,1.372,1.638A7.589,7.589,0,0,0,532.294,1118.5Z" transform="translate(-501.638 -1105.686)"/>
            <path id="Path_402" data-name="Path 402" d="M631.176,1120.25l-.614-.1.082-1.638a29.153,29.153,0,0,0,3.542.348,3.269,3.269,0,0,0,1.638-.328,1.142,1.142,0,0,0,.553-1.064,1.1,1.1,0,0,0-.277-.809,1.679,1.679,0,0,0-.706-.409,9.069,9.069,0,0,0-1.228-.256l-.491-.082a8.309,8.309,0,0,1-1.853-.471,2.283,2.283,0,0,1-1.054-.839,2.7,2.7,0,0,1-.369-1.515q0-3.173,3.89-3.173a19.286,19.286,0,0,1,3.071.307l.594.123-.041,1.6a26.922,26.922,0,0,0-3.522-.327q-2.088,0-2.088,1.269a.96.96,0,0,0,.266.727,1.627,1.627,0,0,0,.686.379q.419.123,1.2.266.143.021.573.1a9.2,9.2,0,0,1,1.894.522,2.123,2.123,0,0,1,1.024.87,3.057,3.057,0,0,1,.338,1.556,3,3,0,0,1-.983,2.487,4.8,4.8,0,0,1-3.03.788A19.09,19.09,0,0,1,631.176,1120.25Z" transform="translate(-585.936 -1105.775)"/>
            <path id="Path_403" data-name="Path 403" d="M728.595,1120.25l-.614-.1.082-1.638a29.15,29.15,0,0,0,3.542.348,3.269,3.269,0,0,0,1.638-.328,1.142,1.142,0,0,0,.553-1.064,1.1,1.1,0,0,0-.276-.809,1.682,1.682,0,0,0-.706-.409,9.086,9.086,0,0,0-1.229-.256l-.491-.082a8.309,8.309,0,0,1-1.853-.471,2.283,2.283,0,0,1-1.054-.839,2.7,2.7,0,0,1-.368-1.515q0-3.173,3.89-3.173a19.288,19.288,0,0,1,3.071.307l.594.123-.041,1.6a26.915,26.915,0,0,0-3.521-.327q-2.088,0-2.088,1.269a.96.96,0,0,0,.266.727,1.625,1.625,0,0,0,.686.379q.42.123,1.2.266.143.021.573.1a9.208,9.208,0,0,1,1.894.522,2.124,2.124,0,0,1,1.024.87,3.061,3.061,0,0,1,.338,1.556,3,3,0,0,1-.983,2.487,4.8,4.8,0,0,1-3.03.788A19.086,19.086,0,0,1,728.595,1120.25Z" transform="translate(-665.023 -1105.775)"/>
            <path id="Path_404" data-name="Path 404" d="M825.235,1087.933h1.9v14.783h-1.9Z" transform="translate(-744.11 -1087.933)"/>
            <path id="Path_405" data-name="Path 405" d="M891.642,1119.669a3.343,3.343,0,0,1-.758-2.354,2.861,2.861,0,0,1,.778-2.221,4.254,4.254,0,0,1,2.477-.87l2.907-.266v-.8a1.819,1.819,0,0,0-.389-1.3,1.532,1.532,0,0,0-1.147-.4,37.1,37.1,0,0,0-3.972.246l-.061-1.392a17.645,17.645,0,0,1,4.033-.512,3.619,3.619,0,0,1,2.62.809,3.458,3.458,0,0,1,.819,2.549v4.934a.935.935,0,0,0,.276.625,1.435,1.435,0,0,0,.747.3l-.062,1.474a5,5,0,0,1-1.495-.194,3.025,3.025,0,0,1-1.085-.6,8.287,8.287,0,0,1-3.48.8A2.862,2.862,0,0,1,891.642,1119.669Zm4.975-1.167.43-.143v-3.01l-2.662.246a1.824,1.824,0,0,0-1.177.481,1.65,1.65,0,0,0-.379,1.177q0,1.638,1.372,1.638A7.587,7.587,0,0,0,896.616,1118.5Z" transform="translate(-797.406 -1105.686)"/>
          </g>
        </g>
      </g>
      <g id="Group_114" data-name="Group 114" transform="translate(145.213 0)">
        <rect id="Rectangle_2762" data-name="Rectangle 2762" width="82.861" height="82.861" rx="17" transform="translate(0)" fill="#f12d2d"/>
        <path id="Path_406" data-name="Path 406" d="M1278.847,913.047l.007-17.484a1.727,1.727,0,0,0-1.725-1.725h-8.145a10.016,10.016,0,0,0-10.048,9.954,9.959,9.959,0,0,0,9.95,9.964l1.429.02a46.511,46.511,0,0,1-1.069,8.62c-1.284,5.678-3.682,10.29-6.934,13.337-3.818,3.579-9.262,5.47-15.743,5.47s-11.925-1.891-15.743-5.47c-3.251-3.048-5.649-7.66-6.934-13.337a46.479,46.479,0,0,1-1.069-8.62l1.42-.02a9.959,9.959,0,0,0,9.959-9.964,10.016,10.016,0,0,0-10.048-9.954h-8.146a1.727,1.727,0,0,0-1.725,1.725l0,8.888,0,8.7,0,.074c0,.12.006.271.009.345a55.4,55.4,0,0,0,.8,8.262c.031.185.063.364.1.53.172.927.371,1.849.591,2.742,1.741,7.079,4.841,12.746,9.213,16.844,5.179,4.855,11.935,7.316,20.08,7.316h2.967c8.145,0,14.9-2.462,20.08-7.316,4.372-4.1,7.472-9.765,9.213-16.844.219-.892.418-1.815.59-2.737.033-.172.066-.35.1-.531a55.411,55.411,0,0,0,.8-8.266c0-.075.006-.228.008-.349l0-.016v-.114C1278.848,913.065,1278.847,913.047,1278.847,913.047Z" transform="translate(-1205.14 -878.615)" fill="#fff"/>
      </g>
    </g>
  </g>
</svg>
